<?xml version="1.0" encoding="UTF-8"?>
<!--
  Cometa — Openclipart (public domain), jhnri4
  https://openclipart.org/detail/120871/comet-by-jhnri4
  Adattata per uso web: XML valido, viewBox invariato.
-->
<svg
  xmlns="http://www.w3.org/2000/svg"
  xmlns:xlink="http://www.w3.org/1999/xlink"
  viewBox="0 0 377.03 369.56"
  width="377.03"
  height="369.56"
  fill="none"
  style="background-color: transparent"
  aria-hidden="true"
>
  <defs>
    <filter id="filter4849" color-interpolation-filters="sRGB">
      <feGaussianBlur in="SourceGraphic" stdDeviation="5.7209681" />
    </filter>
    <filter id="filter4853" color-interpolation-filters="sRGB">
      <feGaussianBlur in="SourceGraphic" stdDeviation="5.7209681" />
    </filter>
    <filter id="filter4965" color-interpolation-filters="sRGB">
      <feGaussianBlur in="SourceGraphic" stdDeviation="8.3324219" />
    </filter>
    <filter
      id="filter5037"
      width="1.3246"
      height="1.3246"
      x="-0.16230"
      y="-0.16230"
      color-interpolation-filters="sRGB"
    >
      <feGaussianBlur in="SourceGraphic" stdDeviation="4.767418" />
    </filter>
    <linearGradient
      id="linearGradient5061"
      x1="243.24"
      y1="651.43"
      x2="441.94"
      y2="372.13"
      gradientUnits="userSpaceOnUse"
    >
      <stop offset="0" style="stop-color:#003380" />
      <stop offset="1" style="stop-color:#003380;stop-opacity:0" />
    </linearGradient>
    <linearGradient
      id="linearGradient5063"
      x1="238.29"
      y1="648.6"
      x2="450.43"
      y2="441.42"
      gradientUnits="userSpaceOnUse"
    >
      <stop offset="0" style="stop-color:#0066ff" />
      <stop offset="1" style="stop-color:#0066ff;stop-opacity:0" />
    </linearGradient>
    <linearGradient
      id="linearGradient5065"
      x1="188.09"
      y1="633.76"
      x2="350.72"
      y2="435.06"
      gradientUnits="userSpaceOnUse"
    >
      <stop offset="0" style="stop-color:#d5e5ff" />
      <stop offset="1" style="stop-color:#d5e5ff;stop-opacity:0" />
    </linearGradient>
    <radialGradient
      id="radialGradient5067"
      cx="200"
      cy="613.11"
      r="35.25"
      gradientUnits="userSpaceOnUse"
    >
      <stop offset="0" style="stop-color:#ffffff" />
      <stop offset="1" style="stop-color:#9dc4ff" />
    </radialGradient>
  </defs>
  <g transform="translate(-141 -303.31)">
    <g id="g5055">
      <path
        id="path4754"
        style="filter:url(#filter4965);fill:url(#linearGradient5061)"
        d="m335.06 323.31-161.56 256.62h0.0312c-7.7476 7.7318-12.531 18.408-12.531 30.219 0 23.589 19.098 42.719 42.688 42.719 12.828 0 24.327-5.6712 32.156-14.625l0.0937 0.0937 262.09-224.06-61.125 10.875 28.531-32.594-96.406 47.531 73.312-67.906-116.78 71.969 65.188-93.688-84.188 62.469 74.688-89.625-71.969 58.375 25.781-58.375z"
      />
      <path
        id="path4777"
        style="filter:url(#filter4853);fill:url(#linearGradient5063)"
        d="m313.09 388.97c-3.7612 3.2608-8.2376 2.2626-12.594 2.9688-4.6066 2.118-4.9426 8.2697-8.4279 11.674-38.816 61.218-76.527 123.25-116.48 183.67-17.524 18.493-7.359 54.418 17.781 59.719 15.84 4.5584 32.857-3.4636 42.824-15.805 80.37-68.42 160.43-137.18 240.72-205.69-18.69 3.3066-37.375 6.6468-56.062 9.9688 5.463-5.7576 10.146-12.099 14.312-18.875-24.476 8.7216-46.281 24.839-71.188 31.344-4.8147-2.5932-2.4291-9.3295 0.6875-12.344 2.4308-3.6028-2.5862-5.8736-5.2188-3.5938-13.314 6.5146-25.041 16.972-39.406 21-4.7021-2.8901-2.2828-9.7582 1.338-12.487 10.101-15.707 22.491-30.09 31.068-46.607 0.20289-4.7289-5.5909-2.7139-7.5938-0.6875-13.894 9.3735-26.437 22.249-42.375 28.125-4.8122-2.2342-4.0238-9.3549 0.21049-11.748 5.9586-7.3842 11.842-14.825 16.165-23.314-1.9167 0.89583-3.8333 1.7917-5.75 2.6875z"
      />
      <path
        id="path4809"
        style="filter:url(#filter4849);fill:url(#linearGradient5065)"
        d="m303.91 397.59c-3.7934 0.65787-3.855 6.4469-5.7812 7.8125 2.5052-2.2631 4.3057-5.3698 6.4688-7.9688l-0.6875 0.15625zm33 9.0312c-10.706 8.2175-21.838 17.425-35 20.969-6.6546-1.3897-10.041-9.2626-8.1875-15.438-39.161 61.722-77.014 124.72-117.88 185.06-9.4552 18.144 3.6863 45.068 25.062 45.031 15.193 1.0504 26.959-10.125 36.72-20.228 72.93-62.15 145.68-124.52 218.54-186.76-17.322 3.1007-34.647 6.1836-51.969 9.2812 4.1169-4.4793 8.3736-8.7936 12.438-13.312-17.508 8.4481-34.7 19.218-53.844 22.875-5.7627-1.3494-7.8088-8.7581-7.6562-12.875-11.633 6.6589-23.045 15.927-36.438 17.969-9.1363-3.4294-9.1462-17.297-1.875-22.719 6.8834-10.736 14.952-20.731 22-31.375-0.63542 0.51042-1.2708 1.0208-1.9062 1.5312z"
      />
      <path
        id="path4787"
        style="filter:url(#filter5037);fill-rule:evenodd;fill:url(#radialGradient5067)"
        transform="matrix(.99124 0 0 .99124 7.8314 2.0454)"
        d="m235.25 613.11c0 19.468-15.782 35.25-35.25 35.25s-35.25-15.782-35.25-35.25 15.782-35.25 35.25-35.25 35.25 15.782 35.25 35.25z"
      />
    </g>
  </g>
</svg>
